<svg width="50" height="50" viewBox="0 0 50 50" fill="none" xmlns="http://www.w3.org/2000/svg">
<path d="M24.8253 0C23.069 5.42431 20.3547 26.8657 24.8253 26.8657C29.9631 26.8657 26.7944 6.7548 24.8253 0Z" fill="#D9D9D9"/>
<path d="M25.1747 50C26.931 44.5757 29.6453 23.1343 25.1747 23.1343C20.0369 23.1343 23.2056 43.2452 25.1747 50Z" fill="#D9D9D9"/>
<path d="M42.5541 7.19876C37.4766 9.79245 20.396 23.0345 23.5572 26.1957C27.1901 29.8286 39.1701 13.3675 42.5541 7.19876Z" fill="#D9D9D9"/>
<path d="M7.44584 42.8012C12.5233 40.2075 29.6039 26.9655 26.4427 23.8043C22.8098 20.1713 10.8298 36.6325 7.44584 42.8012Z" fill="#D9D9D9"/>
<path d="M42.8012 42.5541C40.2076 37.4767 26.9655 20.3961 23.8043 23.5572C20.1714 27.1902 36.6325 39.1702 42.8012 42.5541Z" fill="#D9D9D9"/>
<path d="M7.19878 7.44594C9.79247 12.5234 23.0345 29.604 26.1957 26.4428C29.8287 22.8098 13.3675 10.8299 7.19878 7.44594Z" fill="#D9D9D9"/>
<path d="M50 24.8253C44.5757 23.069 23.1343 20.3547 23.1343 24.8253C23.1343 29.9631 43.2452 26.7944 50 24.8253Z" fill="#D9D9D9"/>
<path d="M0 25.1747C5.42431 26.931 26.8657 29.6453 26.8657 25.1747C26.8657 20.0369 6.7548 23.2056 0 25.1747Z" fill="#D9D9D9"/>
</svg>
