<svg width="71" height="71" viewBox="0 0 71 71" fill="none" xmlns="http://www.w3.org/2000/svg">
<path d="M34.7603 0C27.4531 9.79162 16.572 34.8515 34.7603 34.8515C52.8456 34.8515 42.0675 13.4427 34.7603 0Z" stroke="black"/>
<path d="M34.7149 69.8492C42.169 60.1693 53.4269 35.2769 35.2407 35.0017C17.1575 34.7279 27.6114 56.2974 34.7149 69.8492Z" stroke="black"/>
<path d="M34.7603 0C27.4531 9.79162 16.572 34.8515 34.7603 34.8515C52.8456 34.8515 42.0675 13.4427 34.7603 0Z" stroke="black"/>
<path d="M34.7149 69.8492C42.169 60.1693 53.4269 35.2769 35.2407 35.0017C17.1575 34.7279 27.6114 56.2974 34.7149 69.8492Z" stroke="black"/>
<path d="M0.0564831 35.0356C9.79001 42.4139 34.7456 53.4637 34.8487 35.245C34.9512 17.1295 13.5178 27.797 0.0564831 35.0356Z" stroke="black"/>
<path d="M69.7883 35.4888C60.1683 27.9658 35.384 16.5438 35.0031 34.7588C34.6243 52.8706 56.2181 42.5252 69.7883 35.4888Z" stroke="black"/>
</svg>
