<svg width="40" height="40" viewBox="0 0 40 40" fill="none" xmlns="http://www.w3.org/2000/svg">
<path d="M40 19.8293C40 22.2084 28.2995 25.267 20 24.6744L20 15.2491C28.0333 14.0488 40 17.4503 40 19.8293Z" fill="#E06309"/>
<path d="M0 19.6688C3.11977e-07 17.2897 11.7005 14.6565 20 15.2491V24.6701C11.9667 25.8703 -3.11977e-07 22.0479 0 19.6688Z" fill="#E06309"/>
<path d="M19.8293 0C22.2084 0 25.267 11.7005 24.6744 20L15.2491 20C14.0488 11.9667 17.4503 0 19.8293 0Z" fill="#E06309"/>
<path d="M19.6688 40C17.2897 40 14.6565 28.2995 15.2491 20H24.6701C25.8703 28.0333 22.0479 40 19.6688 40Z" fill="#E06309"/>
<path d="M30.5555 31.3708C29.2683 32.658 21.2829 27.9823 17.113 23.1712L22.2126 18.0716C27.2085 21.7686 31.8427 30.0836 30.5555 31.3708Z" fill="#E06309"/>
<path d="M9.00026 9.64184C10.2875 8.35464 18.0428 13.2605 22.2126 18.0716L17.1154 23.1688C12.1195 19.4718 7.71306 10.929 9.00026 9.64184Z" fill="#E06309"/>
<path d="M30.3708 9.72874C31.658 11.0159 26.9823 19.0014 22.1712 23.1713L17.0716 18.0716C20.7686 13.0758 29.0836 8.44154 30.3708 9.72874Z" fill="#E06309"/>
<path d="M8.64186 31.284C7.35466 29.9968 12.2605 22.2415 17.0716 18.0716L22.1689 23.1689C18.4719 28.1647 9.92906 32.5712 8.64186 31.284Z" fill="#E06309"/>
</svg>
