<svg width="600" height="600" viewBox="0 0 600 600" fill="none" xmlns="http://www.w3.org/2000/svg">
<rect width="600" height="600" fill="white"/>
<path fill-rule="evenodd" clip-rule="evenodd" d="M34.9071 0L35.2718 0.669858C38.8376 7.21846 43.3006 15.7922 44.6351 22.7459C44.7699 23.4484 44.8737 24.139 44.9412 24.8129C45.733 24.8396 46.5466 24.9184 47.3735 25.0414C55.0616 26.1856 64.3514 31.2252 69.4004 35.1668L70 35.6349L69.3242 35.9847C62.7023 39.4124 54.0365 43.6949 47.0558 44.8834C46.491 44.9796 45.9344 45.0561 45.3882 45.1101C45.341 46.2806 45.183 47.4988 44.9381 48.7382C43.4791 56.1222 38.8625 64.6287 35.1852 69.3959L34.7192 70L34.3647 69.3247C30.8982 62.723 26.5653 54.0828 25.3361 47.1097C25.239 46.559 25.1607 46.016 25.1038 45.4828C23.8978 45.4525 22.639 45.3037 21.3566 45.0624C13.9586 43.6707 5.40848 39.1317 0.606638 35.498L0 35.0389L0.670441 34.679C7.23923 31.1528 15.8386 26.7413 22.8003 25.4486C23.4147 25.3345 24.0198 25.244 24.6125 25.1806C24.6345 23.9693 24.776 22.7037 25.0107 21.4138C26.3579 14.0086 30.8454 5.43326 34.4503 0.611033L34.9071 0Z" fill="black"/>
<path fill-rule="evenodd" clip-rule="evenodd" d="M54.3224 16.0736L54.1557 16.6389C52.5258 22.1655 50.2797 29.289 47.2093 33.8177C46.899 34.2752 46.5784 34.7093 46.2471 35.1144C46.6651 35.5616 47.0666 36.0492 47.4512 36.5683C51.0269 41.3943 53.3493 49.2241 53.9544 54.1366L54.0262 54.7201L53.4659 54.542C47.9746 52.7966 40.8995 50.4015 36.4358 47.2366C36.0746 46.9805 35.7287 46.7181 35.4007 46.4493C34.7354 47.063 33.9834 47.6423 33.1724 48.1857C28.3405 51.4232 21.1698 53.5487 16.5557 54.1442L15.971 54.2197L16.1462 53.657C17.8594 48.1556 20.2129 41.067 23.3514 36.5852C23.5993 36.2312 23.8532 35.8917 24.1135 35.5693C23.4711 34.8937 22.8645 34.1246 22.2957 33.2921C19.0138 28.4893 16.8221 21.3372 16.1838 16.7279L16.1031 16.1456L16.6661 16.3153C20 17 29.2914 20.2661 33.8017 23.3637C34.1998 23.6371 34.5799 23.9183 34.9383 24.2075C35.6123 23.5576 36.3811 22.9434 37.2142 22.3668C41.9966 19.0567 49.1343 16.8231 53.7389 16.1579L54.3224 16.0736Z" fill="white"/>
</svg>
